# File created by Blade
# Date/Time:  Thu Jan 22 15:33:01 2015
# Frame Rate: 120.000 fps
#------------------------------------------------------
:FULLY-SPECIFIED
:DEGREES
2369
root -12.424230 32.868719 4.371002 398.452966 -15.560131 -353.031699
RightUpLeg -48.876604 -16.290874 9.905194
RightLeg 15.979373 -0.000000 -0.000000
RightFoot -25.665839 -0.805487 52.907414
RightToeBase 118.229667 -0.000000 -0.000000
LeftUpLeg -58.527373 -1.235511 0.443636
LeftLeg 19.027541 -0.000000 -0.000000
LeftFoot -5.846333 2.813632 -4.153108
LeftToeBase 3.384902 -0.000000 -0.000000
Spine -31.566159 5.909286 -5.080327
RightShoulder -173.128226 1.333247 149.761395
RightArm 166.763871 11.043251 90.877303
RightForeArm 10.262637 -0.000000 57.450036
RightHand 17.592580 0.000000 -17.213618
RightHandThumb1 -24.326973 -0.000000 -32.862282
LeftShoulder -12.921818 15.309362 23.146564
LeftArm 4.250346 -11.358878 -81.501713
LeftForeArm 45.484280 -0.000000 101.414162
LeftHand -27.375017 -0.000000 -0.753218
LeftHandThumb1 -26.253704 0.000000 33.147579
Head 40.766877 27.788655 10.583335
2370
root -12.301601 32.904418 4.319979 398.670526 -15.050970 -353.036217
RightUpLeg -48.555477 -16.452675 9.915149
RightLeg 14.671634 -0.000000 -0.000000
RightFoot -25.534382 -1.531147 52.912982
RightToeBase 118.162576 -0.000000 -0.000000
LeftUpLeg -57.858865 -0.928254 1.071123
LeftLeg 19.938902 -0.000000 -0.000000
LeftFoot -6.199839 3.682906 -3.982592
LeftToeBase 3.303953 -0.000000 -0.000000
Spine -31.739243 5.606223 -4.962330
RightShoulder -173.114116 1.327776 149.598019
RightArm 166.651860 10.694332 91.433323
RightForeArm 10.345015 -0.000000 56.986415
RightHand 17.473965 -0.000000 -17.229912
RightHandThumb1 -24.326973 -0.000000 -32.862282
LeftShoulder -12.911368 15.306330 23.252137
LeftArm 4.443631 -11.451466 -80.723437
LeftForeArm 45.987702 -0.000000 100.744346
LeftHand -27.293501 0.000000 -0.746725
LeftHandThumb1 -26.253704 0.000000 33.147579
Head 40.714655 27.577789 10.529688
2371
root -12.176268 32.929874 4.279937 398.832952 -14.519995 -353.036429
RightUpLeg -48.539935 -17.135866 10.366082
RightLeg 13.849436 -0.000000 -0.000000
RightFoot -25.098208 -1.769883 52.610762
RightToeBase 117.898071 -0.000000 -0.000000
LeftUpLeg -57.158749 -0.638114 1.707511
LeftLeg 20.926553 -0.000000 -0.000000
LeftFoot -6.549285 4.523996 -3.486562
LeftToeBase 3.035349 -0.000000 -0.000000
Spine -31.888784 5.275220 -4.795970
RightShoulder -173.100388 1.342737 149.425218
RightArm 166.550918 10.328467 92.003938
RightForeArm 10.365811 -0.000000 56.536375
RightHand 17.409821 0.000000 -17.293649
RightHandThumb1 -24.326973 -0.000000 -32.862282
LeftShoulder -12.929361 15.294815 23.333534
LeftArm 4.641767 -11.521404 -79.877533
LeftForeArm 46.513951 -0.000000 100.053589
LeftHand -27.349460 -0.000000 -0.534853
LeftHandThumb1 -26.253704 0.000000 33.147579
Head 40.698819 27.429852 10.472218
2372
root -12.052076 32.949926 4.231317 399.068310 -13.991972 -353.118830
RightUpLeg -48.357266 -17.407094 10.574970
RightLeg 12.777877 -0.000000 -0.000000
RightFoot -24.843150 -2.176095 52.784056
RightToeBase 117.275749 -0.000000 -0.000000
LeftUpLeg -56.529331 -0.361769 2.515647
LeftLeg 21.918231 -0.000000 -0.000000
LeftFoot -6.813025 5.353034 -3.057906
LeftToeBase 3.054665 -0.000000 -0.000000
Spine -32.090099 5.004835 -4.601499
RightShoulder -173.055690 1.332491 149.257505
RightArm 166.445355 9.993484 92.613249
RightForeArm 10.381939 -0.000000 56.062227
RightHand 17.212773 -0.000000 -17.268597
RightHandThumb1 -24.326973 -0.000000 -32.862282
LeftShoulder -12.910378 15.242716 23.460180
LeftArm 4.870295 -11.601605 -79.017005
LeftForeArm 46.719553 -0.000000 99.262038
LeftHand -27.231506 -0.000000 -0.423263
LeftHandThumb1 -26.253704 0.000000 33.147579
Head 40.648027 27.220300 10.433811
2373
root -11.928069 32.963471 4.185708 399.279499 -13.490449 -353.231896
RightUpLeg -48.207529 -17.675326 10.808681
RightLeg 11.824190 -0.000000 -0.000000
RightFoot -24.612084 -2.501179 53.096664
RightToeBase 117.697219 -0.000000 -0.000000
LeftUpLeg -55.864698 -0.009118 3.308611
LeftLeg 22.904381 -0.000000 -0.000000
LeftFoot -7.068819 6.066003 -2.541815
LeftToeBase 2.926798 -0.000000 -0.000000
Spine -32.272374 4.730217 -4.373521
RightShoulder -173.009398 1.278082 149.122141
RightArm 166.346102 9.646332 93.266918
RightForeArm 10.427749 -0.000000 55.563148
RightHand 17.138624 -0.000000 -17.098421
RightHandThumb1 -24.326973 -0.000000 -32.862282
LeftShoulder -12.916434 15.224483 23.572866
LeftArm 5.099870 -11.703552 -78.113447
LeftForeArm 46.684217 0.000000 98.450764
LeftHand -27.218514 0.000000 -0.153400
LeftHandThumb1 -26.253704 0.000000 33.147579
Head 40.638498 27.069116 10.427454
2374
root -11.801578 32.971007 4.141795 399.481624 -12.967816 -353.373500
RightUpLeg -48.100894 -17.973268 11.090441
RightLeg 10.987284 -0.000000 -0.000000
RightFoot -24.368110 -2.837392 53.206167
RightToeBase 117.690480 -0.000000 -0.000000
LeftUpLeg -55.178825 0.297191 4.165665
LeftLeg 23.800099 -0.000000 -0.000000
LeftFoot -7.433004 6.781382 -2.210248
LeftToeBase 3.378206 -0.000000 -0.000000
Spine -32.453942 4.472383 -4.122446
RightShoulder -172.950981 1.313205 149.025988
RightArm 166.326738 9.336520 93.975984
RightForeArm 10.461848 -0.000000 55.071355
RightHand 17.076885 -0.000000 -17.184177
RightHandThumb1 -24.326973 -0.000000 -32.862282
LeftShoulder -12.896271 15.197411 23.709180
LeftArm 5.359153 -11.802776 -77.226643
LeftForeArm 46.478752 -0.000000 97.546908
LeftHand -27.298470 -0.000000 0.326352
LeftHandThumb1 -26.253704 0.000000 33.147579
Head 40.657199 26.896318 10.481397
2375
root -11.671380 32.973223 4.099014 399.690779 -12.467820 -353.541218
RightUpLeg -48.051601 -18.274239 11.402475
RightLeg 10.248641 -0.000000 -0.000000
RightFoot -24.123303 -3.209925 53.134126
RightToeBase 117.467363 -0.000000 -0.000000
LeftUpLeg -54.485465 0.674254 4.984222
LeftLeg 24.603310 -0.000000 -0.000000
LeftFoot -7.675649 7.382055 -1.743693
LeftToeBase 3.098124 -0.000000 -0.000000
Spine -32.647595 4.253186 -3.865694
RightShoulder -172.874370 1.263094 148.955683
RightArm 166.216491 9.051659 94.733485
RightForeArm 10.502713 -0.000000 54.619393
RightHand 16.992161 0.000000 -17.217026
RightHandThumb1 -24.326973 -0.000000 -32.862282
LeftShoulder -12.866747 15.183956 23.867952
LeftArm 5.657338 -11.922300 -76.367516
LeftForeArm 46.160861 -0.000000 96.526029
LeftHand -27.288764 0.000000 0.840108
LeftHandThumb1 -26.253704 0.000000 33.147579
Head 40.666343 26.695847 10.495381
2376
root -11.543123 32.973209 4.057018 399.902806 -11.977927 -353.721785
RightUpLeg -48.020705 -18.506142 11.662486
RightLeg 9.600646 -0.000000 -0.000000
RightFoot -23.932275 -3.422989 53.371300
RightToeBase 117.259062 -0.000000 -0.000000
LeftUpLeg -53.865632 1.194347 5.664001
LeftLeg 25.420952 -0.000000 -0.000000
LeftFoot -7.797194 7.715779 -1.256945
LeftToeBase 2.844329 -0.000000 -0.000000
Spine -32.844759 4.015303 -3.596705
RightShoulder -172.784734 1.361195 148.925496
RightArm 166.321764 8.758172 95.533384
RightForeArm 10.592047 -0.000000 54.123019
RightHand 17.120465 -0.000000 -17.194394
RightHandThumb1 -24.326973 -0.000000 -32.862282
LeftShoulder -12.854574 15.141115 24.053289
LeftArm 5.921596 -12.032925 -75.495745
LeftForeArm 45.689183 -0.000000 95.438275
LeftHand -27.268280 -0.000000 1.262608
LeftHandThumb1 -26.253704 0.000000 33.147579
Head 40.700595 26.522358 10.541588
2377
root -11.406499 32.971443 4.011666 400.125875 -11.538493 -353.889368
RightUpLeg -48.068425 -18.705561 11.868040
RightLeg 9.067611 -0.000000 -0.000000
RightFoot -23.754038 -3.617690 53.620393
RightToeBase 117.103389 -0.000000 -0.000000
LeftUpLeg -53.247366 1.770901 6.250846
LeftLeg 26.048615 -0.000000 -0.000000
LeftFoot -7.818373 7.915685 -0.933118
LeftToeBase 2.674449 -0.000000 -0.000000
Spine -33.042530 3.827916 -3.366667
RightShoulder -172.651012 1.282814 148.881102
RightArm 166.279776 8.525342 96.337057
RightForeArm 10.577159 -0.000000 53.644718
RightHand 17.104392 -0.000000 -17.321718
RightHandThumb1 -24.326973 -0.000000 -32.862282
LeftShoulder -12.838909 15.072382 24.251365
LeftArm 6.211100 -12.221357 -74.676539
LeftForeArm 45.152249 0.000000 94.285633
LeftHand -27.170336 -0.000000 1.588605
LeftHandThumb1 -26.253704 0.000000 33.147579
Head 40.726381 26.350140 10.571926
2378
root -11.266875 32.966405 3.970673 400.306648 -11.101258 -354.062668
RightUpLeg -48.150202 -18.975654 12.120125
RightLeg 8.672770 -0.000000 -0.000000
RightFoot -23.554939 -3.727139 53.851026
RightToeBase 116.998883 -0.000000 -0.000000
LeftUpLeg -52.555084 2.451299 6.689190
LeftLeg 26.417314 -0.000000 -0.000000
LeftFoot -7.745354 8.017452 -0.670986
LeftToeBase 2.143356 -0.000000 -0.000000
Spine -33.209965 3.654428 -3.134773
RightShoulder -172.522171 1.354578 148.881423
RightArm 166.353034 8.197941 97.185650
RightForeArm 10.603956 -0.000000 53.215515
RightHand 17.095383 -0.000000 -17.413521
RightHandThumb1 -24.326973 -0.000000 -32.862282
LeftShoulder -12.801082 14.955926 24.477797
LeftArm 6.468395 -12.317166 -73.859384
LeftForeArm 44.843178 -0.000000 93.114159
LeftHand -27.436976 -0.000000 2.011022
LeftHandThumb1 -26.253704 0.000000 33.147579
Head 40.748186 26.143395 10.578084
2379
root -11.118163 32.964210 3.918556 400.600788 -10.693891 -354.214001
RightUpLeg -48.262541 -18.980419 12.122590
RightLeg 8.207949 -0.000000 -0.000000
RightFoot -23.549335 -4.083972 54.215294
RightToeBase 116.784390 -0.000000 -0.000000
LeftUpLeg -51.925483 3.111621 7.118757
LeftLeg 26.489876 -0.000000 -0.000000
LeftFoot -7.655156 8.102612 -0.598765
LeftToeBase 1.491075 -0.000000 -0.000000
Spine -33.469291 3.463188 -2.909414
RightShoulder -172.410641 1.291671 148.852515
RightArm 166.344139 7.835487 98.030649
RightForeArm 10.474009 -0.000000 52.789790
RightHand 17.109305 -0.000000 -17.367466
RightHandThumb1 -24.326973 -0.000000 -32.862282
LeftShoulder -12.781868 14.810131 24.686440
LeftArm 6.693470 -12.517405 -73.081336
LeftForeArm 44.539032 0.000000 91.873908
LeftHand -27.303056 0.000000 2.349515
LeftHandThumb1 -26.253704 0.000000 33.147579
Head 40.822356 25.985386 10.575984
2380
root -10.968702 32.960267 3.873286 400.825933 -10.286025 -354.363502
RightUpLeg -48.383131 -19.113483 12.211730
RightLeg 7.840315 -0.000000 -0.000000
RightFoot -23.442252 -4.290647 54.670265
RightToeBase 116.583742 -0.000000 -0.000000
LeftUpLeg -51.246770 3.954174 7.333932
LeftLeg 26.445634 -0.000000 -0.000000
LeftFoot -7.635827 8.091198 -0.598738
LeftToeBase 0.542765 -0.000000 -0.000000
Spine -33.675675 3.262819 -2.677247
RightShoulder -172.289844 1.174539 148.826790
RightArm 166.291705 7.499156 98.846251
RightForeArm 10.493383 -0.000000 52.380848
RightHand 17.130829 -0.000000 -17.600596
RightHandThumb1 -24.326973 -0.000000 -32.862282
LeftShoulder -12.764392 14.708142 24.902117
LeftArm 6.951317 -12.705165 -72.355396
LeftForeArm 44.426679 0.000000 90.669767
LeftHand -27.280401 -0.000000 2.331235
LeftHandThumb1 -26.253704 0.000000 33.147579
Head 40.928275 25.808289 10.567435
